#N canvas -9 -9 1920 976 12;
#X obj 347 920 dac~;
#X obj 135 700 mVol~;
#X obj 337 672 *~;
#X obj 706 586 line~;
#X msg 1019 568 0 100;
#X msg 920 559 1 50;
#X obj 492 346 mSimpleTransposition;
#X floatatom 491 315 5 0 0 0 - - -;
#X floatatom 604 313 5 0 0 0 - - -;
#X obj 384 393 osc~ 440;
#X msg 921 185 2 5 9;
#X obj 973 217 unpack f f f;
#X msg 997 189 7 11 2;
#X msg 1073 191 0 4 7;
#X obj 322 315 mSimpleTransposition;
#X floatatom 321 284 5 0 0 0 - - -;
#X floatatom 434 282 5 0 0 0 - - -;
#X obj 215 356 osc~ 440;
#X obj 808 307 mSimpleTransposition;
#X floatatom 810 275 5 0 0 0 - - -;
#X floatatom 914 270 5 0 0 0 - - -;
#X obj 695 344 osc~ 440;
#X obj 343 619 *~;
#X obj 490 554 vline~;
#X obj 475 592 *~;
#X obj 591 431 tgl 15 1 empty empty empty 17 7 0 10 -262144 -1 -1 1
1;
#X obj 903 152 bng 15 250 50 0 empty empty empty 17 7 0 10 -262144
-1 -1;
#X obj 1071 153 bng 15 250 50 0 empty empty empty 17 7 0 10 -262144
-1 -1;
#X obj 822 124 tgl 15 0 empty empty empty 17 7 0 10 -262144 -1 -1 1
1;
#X obj 1070 43 tgl 15 0 empty empty empty 17 7 0 10 -262144 -1 -1 1
1;
#X obj 758 152 metro 2000;
#X obj 1113 140 metro 2000;
#X obj 957 151 bng 15 250 50 0 empty empty empty 17 7 0 10 -262144
-1 -1;
#X obj 1003 60 tgl 15 0 empty empty empty 17 7 0 10 -262144 -1 -1 1
1;
#X obj 999 138 metro 2000;
#X obj 1003 95 pipe 1000;
#X obj 1116 83 pipe 500;
#X obj 525 456 metro 1000;
#X obj 928 509 tgl 15 1 empty empty empty 17 7 0 10 -262144 -1 -1 1
1;
#X obj 962 19 tgl 15 1 empty empty empty 17 7 0 10 -262144 -1 -1 1
1;
#X obj 172 52 netreceive 32000;
#X msg 172 81 \; myAmp 0.602273 \;;
#X obj 358 763 adc~;
#X obj 1029 262 receive note1;
#X obj 591 176 receive note2;
#X obj 336 831 *~;
#X obj 375 827 *~;
#X obj 338 709 *~;
#X obj 450 684 receive volume;
#X msg 512 520 0.5 \, 1 50 \, 0.5 60 \, 0 500;
#X connect 2 0 47 0;
#X connect 3 0 2 1;
#X connect 4 0 3 0;
#X connect 5 0 3 0;
#X connect 6 0 9 0;
#X connect 7 0 6 0;
#X connect 8 0 6 1;
#X connect 9 0 22 0;
#X connect 10 0 11 0;
#X connect 11 0 15 0;
#X connect 11 1 7 0;
#X connect 11 2 19 0;
#X connect 12 0 11 0;
#X connect 13 0 11 0;
#X connect 14 0 17 0;
#X connect 15 0 14 0;
#X connect 16 0 14 1;
#X connect 17 0 22 0;
#X connect 18 0 21 0;
#X connect 19 0 18 0;
#X connect 20 0 18 1;
#X connect 21 0 22 0;
#X connect 22 0 2 0;
#X connect 23 0 24 0;
#X connect 23 0 24 1;
#X connect 24 0 22 1;
#X connect 25 0 37 0;
#X connect 26 0 10 0;
#X connect 27 0 13 0;
#X connect 28 0 30 0;
#X connect 29 0 36 0;
#X connect 30 0 26 0;
#X connect 31 0 27 0;
#X connect 32 0 12 0;
#X connect 33 0 35 0;
#X connect 34 0 32 0;
#X connect 35 0 34 0;
#X connect 36 0 31 0;
#X connect 37 0 49 0;
#X connect 38 0 5 0;
#X connect 39 0 28 0;
#X connect 39 0 33 0;
#X connect 39 0 29 0;
#X connect 40 0 41 0;
#X connect 42 0 45 1;
#X connect 42 1 46 1;
#X connect 43 0 20 0;
#X connect 44 0 8 0;
#X connect 45 0 0 0;
#X connect 46 0 0 1;
#X connect 47 0 45 0;
#X connect 47 0 46 0;
#X connect 48 0 47 1;
#X connect 49 0 23 0;
