#N canvas -9 -9 1920 966 12;
#X obj 148 786 dac~;
#X obj 353 324 soundfiler;
#N canvas 0 50 450 250 (subpatch) 0;
#X array array2 1.1025e+006 float 2;
#X coords 0 1 1.1025e+006 -1 200 140 1 0 0;
#X restore 103 61 graph;
#X obj 124 363 expr 44100/ $f1;
#X floatatom 130 453 5 0 0 0 - - -;
#X obj 130 491 phasor~;
#X obj 134 543 *~;
#X obj 144 710 *~;
#X floatatom 272 638 5 0 0 0 - - -;
#X msg 259 679 \$1 20;
#X obj 253 715 line~;
#X obj 146 747 hip~ 5;
#X obj 155 34;
#X obj 478 116 tgl 15 1 empty empty empty 17 7 0 10 -262144 -1 -1 1
1;
#X obj 296 567 tgl 15 1 empty empty empty 17 7 0 10 -262144 -1 -1 1
1;
#X msg 470 153 open RoomMusic/1note.wav;
#X msg 464 213 read -resize \$1 array2;
#X obj 134 612 tabread4~ array2;
#X connect 1 0 6 1;
#X connect 1 0 3 0;
#X connect 3 0 4 0;
#X connect 4 0 5 0;
#X connect 5 0 6 0;
#X connect 6 0 17 0;
#X connect 7 0 11 0;
#X connect 8 0 9 0;
#X connect 9 0 10 0;
#X connect 10 0 7 1;
#X connect 11 0 0 0;
#X connect 11 0 0 1;
#X connect 13 0 15 0;
#X connect 14 0 8 0;
#X connect 15 0 16 0;
#X connect 16 0 1 0;
#X connect 17 0 7 0;
